<?xml version="1.0" encoding="UTF-8" standalone="no" ?>
<!DOCTYPE svg PUBLIC "-//W3C//DTD SVG 1.1//EN" "http://www.w3.org/Graphics/SVG/1.1/DTD/svg11.dtd">
<svg xmlns="http://www.w3.org/2000/svg" xmlns:xlink="http://www.w3.org/1999/xlink" version="1.1" width="1280" height="1024" viewBox="0 0 1280 1024" xml:space="preserve">
<desc>Created with Fabric.js 5.3.0</desc>
<defs>
</defs>
<g transform="matrix(1 0 0 1 640 512)" id="background-logo"  >
<rect style="stroke: none; stroke-width: 0; stroke-dasharray: none; stroke-linecap: butt; stroke-dashoffset: 0; stroke-linejoin: miter; stroke-miterlimit: 4; fill: rgb(255,255,255); fill-opacity: 0; fill-rule: nonzero; opacity: 1;"  paint-order="stroke"  x="-640" y="-512" rx="0" ry="0" width="1280" height="1024" />
</g>
<g transform="matrix(1.7650935982527318 0 0 1.7650935982527318 198.56979522671116 512.8992375304459)" id="logo-logo"  >
<g style=""  paint-order="stroke"   >
		<g transform="matrix(0.5651905025423759 0 0 0.5651905025423759 0.011711566738824786 65.53449684935009)"  >
<linearGradient id="SVGID_24_276281" gradientUnits="userSpaceOnUse" gradientTransform="matrix(1 0 0 1 0 0)"  x1="692.3313599" y1="538.390564" x2="694.2668457" y2="443.5518188">
<stop offset="0%" style="stop-color:rgb(247,221,113);stop-opacity: 1"/>
<stop offset="100%" style="stop-color:rgb(153,117,57);stop-opacity: 1"/>
</linearGradient>
<path style="stroke: none; stroke-width: 1; stroke-dasharray: none; stroke-linecap: butt; stroke-dashoffset: 0; stroke-linejoin: miter; stroke-miterlimit: 4; fill: url(#SVGID_24_276281); fill-rule: nonzero; opacity: 1;"  paint-order="stroke"  transform=" translate(-693.9103088499999, -479.59036265000003)" d="M 794.6149292 454.5578003 L 802.1447754 460.9942017 C 780.9810180999999 498.98934940000004 740.3835449 524.7348023000001 693.8895263999999 524.7348023000001 C 647.4232787999999 524.7348023000001 606.8535156999999 499.01705940000005 585.6758422999999 461.0495301000001 L 593.1918334999999 454.61315930000006 C 612.4317017 490.54599010000004 650.3577270999999 515.0456544000001 693.8895263999999 515.0456544000001 C 737.4491577 515.0456543 775.388916 490.532135 794.6149292 454.5578003 z M 616.6810913 434.5151978 L 609.0266724 441.0622254 C 624.1001587000001 472.8148804 656.475708 494.8092347 693.8895264 494.8092347 C 731.3311768 494.8092347 763.720459 472.7871705 778.7940064000001 441.0068971 L 771.1257935000001 434.445923 C 758.1561280000001 464.2330934 728.4105225000001 485.1201173 693.8895264000001 485.1201173 C 659.3963013 485.1201172 629.6784058 464.2746582 616.6810913 434.5151978 z" stroke-linecap="round" />
</g>
		<g transform="matrix(0.5651905025423759 0 0 0.5651905025423759 0 -19.835602870854984)"  >
<linearGradient id="SVGID_25_276282" gradientUnits="userSpaceOnUse" gradientTransform="matrix(1 0 0 1 0 0)"  x1="695.3325806" y1="212.2236481" x2="693.7841797" y2="414.6752625">
<stop offset="0%" style="stop-color:rgb(247,221,113);stop-opacity: 1"/>
<stop offset="100%" style="stop-color:rgb(153,117,57);stop-opacity: 1"/>
</linearGradient>
<path style="stroke: none; stroke-width: 1; stroke-dasharray: none; stroke-linecap: butt; stroke-dashoffset: 0; stroke-linejoin: miter; stroke-miterlimit: 4; fill: url(#SVGID_25_276282); fill-rule: nonzero; opacity: 1;"  paint-order="stroke"  transform=" translate(-693.8895874, -328.54376980000006)" d="M 798.9058228 335.3400269 L 798.9058228 356.1577759 C 804.7885132 369.9025574 808.0413208 385.0175781 808.0413208 400.8938599 C 808.0413208 414.043396 805.8128662 426.6669312 801.7018433 438.432312 L 784.9119873 424.07855220000005 L 784.9119873 424.06469720000007 C 785.1749877999999 423.02658070000007 785.4241333 421.9884643000001 785.6456299 420.92269890000006 C 787.0020752 414.72161860000006 787.7495117 408.28530880000005 787.7910767 401.69668570000005 L 787.8049317 401.69668570000005 L 787.8049317 336.08743280000004 L 787.8049317 325.56784050000005 L 762.0594483 297.5662841000001 L 751.9551392 286.57604970000006 L 751.9551392 291.54513540000005 L 751.9551392 302.66000360000004 L 751.9551392 419.1786498 L 735.2206421 404.63110340000003 L 735.2206421 294.5072632 L 735.2206421 284.1676331 L 735.2206421 243.04415899999998 L 733.8918457 241.6046601 L 697.7790527 202.5435944 L 697.7790527 241.60466 L 697.7790527 277.1360473 L 697.7790527 286.8390502 L 697.7790527 339.6863097 L 707.4681396 347.9774169 L 707.4681396 287.5587462 L 707.4681396 277.81427 L 707.4681396 241.60466000000002 L 707.4681396 227.29240410000003 L 720.7007446 241.60466000000002 L 725.5315551 246.83674620000002 L 725.5315551 281.1639404 L 725.5315551 291.2129516 L 725.5315551 373.12759389999997 L 694.1525268 345.95651239999995 L 694.0003051 345.81811519999997 L 693.9864501 345.83197019999994 L 662.2753295 373.30752559999996 L 662.2753295 291.2129516 L 662.2753295 281.1639404 L 662.2753295 246.8367462 L 667.106079 241.60466 L 680.3386229 227.2924041 L 680.3386229 241.60466 L 680.3386229 277.81426999999996 L 680.3386229 287.55874629999994 L 680.3386229 348.37878409999996 L 690.0277708 340.08767689999996 L 690.0277708 286.8390502 L 690.0277708 277.1360473 L 690.0277708 241.60466 L 690.0277708 202.5435943 L 653.914978 241.60466 L 652.5862426 243.04415889999999 L 652.5862426 284.16763299999997 L 652.5862426 294.49340809999995 L 652.5862426 404.6311034 L 635.8655395 419.17864979999996 L 635.8655395 302.6461487 L 635.8655395 291.53128050000004 L 635.8655395 286.5760498 L 625.8026732999999 297.51086430000004 L 625.7888793999999 297.5247193 L 600.0019530999999 325.5678406 L 600.0019530999999 336.04595950000004 L 600.0019530999999 400.89385990000005 L 599.9880980999999 400.89385990000005 C 599.9880980999999 401.1568604 599.9880980999999 401.43371590000004 600.0019530999999 401.69668580000007 C 600.0434569999999 408.28530880000005 600.7909546 414.7216187000001 602.1473998999999 420.9226990000001 C 602.3688353999999 421.98846440000005 602.6179809999999 423.0265808000001 602.8809813999999 424.0646973000001 L 586.0910643999999 438.4461670000001 C 581.9663085 426.6807861000001 579.737854 414.04339600000014 579.737854 400.8938599000001 C 579.737854 385.0175782000001 582.9906006 369.9025574000001 588.873291 356.1577759000001 L 588.873291 335.3538819000001 C 576.9418335 354.3722230000001 570.048706 376.8509827000001 570.048706 400.8938599000001 C 570.048706 416.47952270000013 572.9415893 431.4145813000001 578.2429199000001 445.1593933000001 C 579.4332886000001 448.3290710000001 580.7759399 451.4295959000001 582.257019 454.4747620000001 C 582.257019 454.5024720000001 582.270874 454.5162354000001 582.2846679 454.54394530000013 L 589.9252319000001 448.01074220000015 C 589.9113769 447.9968872000002 589.8975219000001 447.9691773000001 589.8975219000001 447.94146730000017 L 606.0507812000001 434.11370850000014 C 606.0646362000001 434.14141850000016 606.0783691 434.16912840000015 606.0783691 434.18292240000017 L 613.9542846 427.4282837000002 C 613.9542846 427.40057370000017 613.9404907 427.38671880000015 613.9404907 427.3590088000002 L 621.4702148 420.9226990000002 L 626.1763916 416.8947449000002 L 626.1763916 420.9226990000002 L 626.1763916 440.4532166000002 L 648.6275635 420.9226990000002 L 662.2753296 409.0466004000002 L 662.2753296 386.1248780000002 L 694.0003052 358.6354676000002 L 725.5315552 385.9588013000002 L 725.5315552 409.04660040000016 L 739.1931763 420.92269900000014 L 761.6442261 440.45321660000013 L 761.6442261 420.922699 L 761.6442261 416.92245490000005 L 766.3226929 420.922699 L 773.8525391 427.3590088 L 773.8525391 427.3728638 L 781.7284546 434.11370850000003 L 797.8953858 447.92770390000004 C 797.8953858 447.94146730000006 797.8815308 447.94146730000006 797.8815308 447.94146730000006 L 805.5360108 454.48861700000003 L 805.5360108 454.47476200000006 C 807.0032348999999 451.42959600000006 808.3458253 448.3290711000001 809.5500489 445.15939330000003 C 814.8375245 431.4145813 817.7304687999999 416.4795227 817.7304687999999 400.89385990000005 C 817.7304688 376.8371277 810.8373413 354.3583679 798.9058228 335.3400269 z M 611.213623 416.9363098 C 610.2585449 411.9948425 609.7326049 406.9011536 609.691101 401.6966858 L 609.691101 329.3465576 L 626.1763915 311.43551629999996 L 626.1763915 404.132843 L 611.213623 416.9363098 z M 761.6442261 404.160553 L 761.6442261 311.4355164 L 778.1157837 329.3465577 L 778.1157837 400.8938599 C 778.1157837 406.3751526 777.5897827 411.7457276 776.5794066999999 416.93630989999997 L 761.6442261 404.160553 z" stroke-linecap="round" />
</g>
		<g transform="matrix(0.5651905025423759 0 0 0.5651905025423759 -0.054763172919990666 42.44445189451926)"  >
<linearGradient id="SVGID_26_276283" gradientUnits="userSpaceOnUse" gradientTransform="matrix(1 0 0 1 0 0)"  x1="712.1826782" y1="423.5174866" x2="678.505249" y2="451.3884583">
<stop offset="0%" style="stop-color:rgb(153,117,57);stop-opacity: 1"/>
<stop offset="56.92777999999999%" style="stop-color:rgb(247,221,113);stop-opacity: 1"/>
<stop offset="100%" style="stop-color:rgb(153,117,57);stop-opacity: 1"/>
</linearGradient>
<path style="stroke: none; stroke-width: 1; stroke-dasharray: none; stroke-linecap: butt; stroke-dashoffset: 0; stroke-linejoin: miter; stroke-miterlimit: 4; fill: url(#SVGID_26_276283); fill-rule: nonzero; opacity: 1;"  paint-order="stroke"  transform=" translate(-693.7926941000001, -438.73680115)" d="M 674.6220703 442.5017395 L 690.027771 442.5017395 L 690.027771 457.9074402 L 674.6220703 457.9074402 L 674.6220703 442.5017395 z M 697.5576172 457.9074402 L 712.9633179 457.9074402 L 712.9633179 442.5017395 L 697.5576172 442.5017395 L 697.5576172 457.9074402 z M 690.027771 420.922699 L 690.027771 419.56616210000004 L 674.6220703 419.56616210000004 L 674.6220703 420.922699 L 674.6220703 434.97189330000003 L 690.027771 434.97189330000003 L 690.027771 420.922699 z M 712.9633179 420.922699 L 712.9633179 419.56616210000004 L 697.5576172 419.56616210000004 L 697.5576172 420.922699 L 697.5576172 434.97189330000003 L 712.9633179 434.97189330000003 L 712.9633179 420.922699 z" stroke-linecap="round" />
</g>
</g>
</g>
<g transform="matrix(1.9211538461538462 0 0 1.9211538461538462 784.2826809244806 527.2391447828824)" id="text-logo"  >
<g style=""  paint-order="stroke"   >
		<g transform="matrix(1 0 0 1 0 0)" id="text-logo-path-0"  >
<path style="stroke: none; stroke-width: 0; stroke-dasharray: none; stroke-linecap: butt; stroke-dashoffset: 0; stroke-linejoin: miter; stroke-miterlimit: 4; fill: rgb(178,157,77); fill-rule: nonzero; opacity: 1;"  paint-order="stroke"  transform=" translate(-226.89, 16.455)" d="M 3.76 -4.7 L 3.76 -4.7 L 3.76 -8.93 L 8.47 -8.93 L 8.47 -4.7 L 24.9 -4.7 L 24.9 -14.09 L 8.93 -14.09 Q 7.96 -14.09 7.1 -14.47 Q 6.24 -14.85 5.6 -15.48 Q 4.96 -16.11 4.59 -16.97 Q 4.22 -17.83 4.22 -18.8 L 4.22 -18.8 L 4.22 -28.2 Q 4.22 -29.17 4.59 -30.03 Q 4.96 -30.89 5.6 -31.52 Q 6.24 -32.15 7.1 -32.53 Q 7.96 -32.91 8.93 -32.91 L 8.93 -32.91 L 24.9 -32.91 Q 25.86 -32.91 26.72 -32.53 Q 27.58 -32.15 28.23 -31.52 Q 28.87 -30.89 29.24 -30.03 Q 29.6 -29.17 29.6 -28.2 L 29.6 -28.2 L 29.6 -23.96 L 24.9 -23.96 L 24.9 -28.2 L 8.93 -28.2 L 8.93 -18.8 L 24.9 -18.8 Q 25.86 -18.8 26.72 -18.43 Q 27.58 -18.06 28.23 -17.42 Q 28.87 -16.78 29.24 -15.92 Q 29.6 -15.05 29.6 -14.09 L 29.6 -14.09 L 29.6 -4.7 Q 29.6 -3.74 29.24 -2.88 Q 28.87 -2.02 28.23 -1.38 Q 27.58 -0.73 26.72 -0.37 Q 25.86 0 24.9 0 L 24.9 0 L 8.47 0 Q 7.5 0 6.64 -0.37 Q 5.78 -0.73 5.14 -1.38 Q 4.5 -2.02 4.13 -2.88 Q 3.76 -3.74 3.76 -4.7 Z M 51.19 0 L 46.49 0 L 46.49 -32.91 L 51.19 -32.91 L 51.19 -18.7 L 66.89 -32.91 L 73.52 -32.91 L 55.71 -16.78 L 74.23 0 L 67.6 0 L 51.19 -14.8 L 51.19 0 Z M 91.62 0 L 86.91 0 L 86.91 -32.91 L 91.62 -32.91 L 91.62 0 Z M 130.09 0 L 108.48 0 L 108.48 -32.91 L 113.18 -32.91 L 113.18 -4.7 L 130.09 -4.7 L 130.09 0 Z M 165.77 0 L 144.15 0 L 144.15 -32.91 L 148.86 -32.91 L 148.86 -4.7 L 165.77 -4.7 L 165.77 0 Z M 203.81 0 L 179.83 0 L 179.83 -32.91 L 203.81 -32.91 L 203.81 -28.2 L 184.53 -28.2 L 184.53 -18.8 L 200.99 -18.8 L 200.99 -14.09 L 184.53 -14.09 L 184.53 -4.7 L 203.81 -4.7 L 203.81 0 Z M 236 0 L 219.27 0 L 219.27 -32.91 L 236 -32.91 Q 238.64 -32.91 240.76 -32.09 Q 242.88 -31.28 244.39 -29.78 Q 245.89 -28.27 246.71 -26.14 Q 247.52 -24 247.52 -21.39 L 247.52 -21.39 L 247.52 -11.52 Q 247.52 -8.9 246.71 -6.77 Q 245.89 -4.64 244.39 -3.13 Q 242.88 -1.63 240.76 -0.81 Q 238.64 0 236 0 L 236 0 Z M 223.97 -28.2 L 223.97 -4.7 L 236 -4.7 Q 239.28 -4.7 241.05 -6.47 Q 242.82 -8.24 242.82 -11.52 L 242.82 -11.52 L 242.82 -21.39 Q 242.82 -23 242.36 -24.26 Q 241.9 -25.52 241.01 -26.4 Q 240.13 -27.29 238.87 -27.75 Q 237.61 -28.2 236 -28.2 L 236 -28.2 L 223.97 -28.2 Z M 302.69 0 L 285.96 0 L 285.96 -32.91 L 302.69 -32.91 Q 305.33 -32.91 307.46 -32.09 Q 309.58 -31.28 311.08 -29.78 Q 312.59 -28.27 313.4 -26.14 Q 314.21 -24 314.21 -21.39 L 314.21 -21.39 L 314.21 -11.52 Q 314.21 -8.9 313.4 -6.77 Q 312.59 -4.64 311.08 -3.13 Q 309.58 -1.63 307.46 -0.81 Q 305.33 0 302.69 0 L 302.69 0 Z M 290.67 -28.2 L 290.67 -4.7 L 302.69 -4.7 Q 305.98 -4.7 307.74 -6.47 Q 309.51 -8.24 309.51 -11.52 L 309.51 -11.52 L 309.51 -21.39 Q 309.51 -23 309.05 -24.26 Q 308.59 -25.52 307.71 -26.4 Q 306.82 -27.29 305.56 -27.75 Q 304.3 -28.2 302.69 -28.2 L 302.69 -28.2 L 290.67 -28.2 Z M 354.14 0 L 330.15 0 L 330.15 -32.91 L 354.14 -32.91 L 354.14 -28.2 L 334.86 -28.2 L 334.86 -18.8 L 351.31 -18.8 L 351.31 -14.09 L 334.86 -14.09 L 334.86 -4.7 L 354.14 -4.7 L 354.14 0 Z M 374.3 0 L 369.6 0 L 369.6 -32.91 L 374.74 -32.91 L 387.27 -8.12 L 399.82 -32.91 L 404.94 -32.91 L 404.94 0 L 400.26 0 L 400.26 -24.12 L 387.98 0 L 386.58 0 L 374.3 -24.12 L 374.3 0 Z M 421.82 -4.7 L 421.82 -4.7 L 421.82 -28.2 Q 421.82 -29.17 422.19 -30.03 Q 422.55 -30.89 423.2 -31.52 Q 423.84 -32.15 424.7 -32.53 Q 425.56 -32.91 426.52 -32.91 L 426.52 -32.91 L 445.32 -32.91 Q 446.28 -32.91 447.14 -32.53 Q 448 -32.15 448.65 -31.52 Q 449.29 -30.89 449.66 -30.03 Q 450.02 -29.17 450.02 -28.2 L 450.02 -28.2 L 450.02 -4.7 Q 450.02 -3.74 449.66 -2.88 Q 449.29 -2.02 448.65 -1.38 Q 448 -0.73 447.14 -0.37 Q 446.28 0 445.32 0 L 445.32 0 L 426.52 0 Q 425.56 0 424.7 -0.37 Q 423.84 -0.73 423.2 -1.38 Q 422.55 -2.02 422.19 -2.88 Q 421.82 -3.74 421.82 -4.7 Z M 426.52 -28.2 L 426.52 -4.7 L 445.32 -4.7 L 445.32 -28.2 L 426.52 -28.2 Z" stroke-linecap="round" />
</g>
</g>
</g>
<g transform="matrix(1.9211538461538462 0 0 1.9211538461538462 785.4264428685912 599.3156786424076)" id="tagline-49da3ed0-ba06-441f-88fb-186bb1ef58ad-logo"  >
<g style=""  paint-order="stroke"   >
		<g transform="matrix(1 0 0 1 0 0)" id="tagline-49da3ed0-ba06-441f-88fb-186bb1ef58ad-logo-path-0"  >
<filter id="SVGID_276280" y="-176.98587127158564%" height="453.9717425431713%" x="-25.47963220708626%" width="150.95926441417254%" >
	<feGaussianBlur in="SourceAlpha" stdDeviation="11.538461538461544"></feGaussianBlur>
	<feOffset dx="0" dy="0" result="oBlur" ></feOffset>
	<feFlood flood-color="rgb(0,0,0)" flood-opacity="1"/>
	<feComposite in2="oBlur" operator="in" />
	<feMerge>
		<feMergeNode></feMergeNode>
		<feMergeNode in="SourceGraphic"></feMergeNode>
	</feMerge>
</filter>
<path style="stroke: rgb(255,255,255); stroke-width: 0; stroke-dasharray: none; stroke-linecap: butt; stroke-dashoffset: 0; stroke-linejoin: miter; stroke-miterlimit: 4; fill: rgb(217,217,216); fill-rule: nonzero; opacity: 1;filter: url(#SVGID_276280);"  paint-order="stroke"  transform=" translate(-211.66000000000003, 3.91)" d="M 1.09 -0.96 L 1.09 -0.96 L 1.09 -9.54 Q 1.09 -9.74 1.16 -9.92 Q 1.24 -10.09 1.37 -10.22 Q 1.49 -10.36 1.67 -10.43 Q 1.85 -10.5 2.05 -10.5 L 2.05 -10.5 L 8.42 -10.5 Q 8.77 -10.5 9.18 -10.38 Q 9.58 -10.25 9.93 -9.98 Q 10.28 -9.7 10.51 -9.27 Q 10.74 -8.83 10.74 -8.19 L 10.74 -8.19 L 10.74 -7.83 Q 10.74 -7.32 10.57 -6.74 Q 10.4 -6.16 10.03 -5.64 L 10.03 -5.64 Q 10.35 -5.44 10.63 -5.16 Q 10.91 -4.89 11.13 -4.52 Q 11.34 -4.15 11.46 -3.69 Q 11.59 -3.23 11.59 -2.67 L 11.59 -2.67 L 11.59 -2.31 Q 11.59 -1.96 11.47 -1.55 Q 11.35 -1.15 11.07 -0.81 Q 10.8 -0.46 10.36 -0.23 Q 9.92 0 9.28 0 L 9.28 0 L 2.05 0 Q 1.85 0 1.67 -0.07 Q 1.49 -0.15 1.37 -0.27 Q 1.24 -0.4 1.16 -0.58 Q 1.09 -0.75 1.09 -0.96 Z M 3 -8.6 L 3 -1.9 L 9.28 -1.9 Q 9.33 -1.9 9.4 -1.91 Q 9.48 -1.92 9.54 -1.96 Q 9.59 -1.99 9.64 -2.08 Q 9.68 -2.17 9.68 -2.32 L 9.68 -2.32 L 9.68 -2.67 Q 9.68 -3.05 9.57 -3.34 Q 9.45 -3.64 9.24 -3.85 Q 9.02 -4.06 8.72 -4.18 Q 8.42 -4.29 8.05 -4.29 L 8.05 -4.29 L 3.76 -4.29 L 3.76 -6.21 L 7.19 -6.21 Q 7.57 -6.21 7.87 -6.32 Q 8.17 -6.44 8.38 -6.65 Q 8.59 -6.86 8.7 -7.16 Q 8.82 -7.46 8.82 -7.83 L 8.82 -7.83 L 8.82 -8.19 Q 8.82 -8.6 8.42 -8.6 L 8.42 -8.6 L 3 -8.6 Z M 14.64 -2.62 L 14.64 -2.62 L 14.64 -5.3 Q 14.64 -5.69 14.78 -6.15 Q 14.92 -6.61 15.23 -7 Q 15.54 -7.39 16.04 -7.65 Q 16.54 -7.92 17.26 -7.92 L 17.26 -7.92 L 20.7 -7.92 Q 21.09 -7.92 21.55 -7.78 Q 22.01 -7.64 22.4 -7.33 Q 22.79 -7.02 23.05 -6.51 Q 23.32 -6.01 23.32 -5.3 L 23.32 -5.3 Q 23.32 -4.9 23.18 -4.44 Q 23.04 -3.98 22.73 -3.59 Q 22.42 -3.2 21.92 -2.94 Q 21.41 -2.67 20.7 -2.67 L 20.7 -2.67 L 17.26 -2.67 L 17.26 -4.48 L 20.7 -4.48 Q 21.08 -4.48 21.3 -4.72 Q 21.51 -4.96 21.51 -5.31 L 21.51 -5.31 Q 21.51 -5.68 21.27 -5.9 Q 21.03 -6.11 20.7 -6.11 L 20.7 -6.11 L 17.26 -6.11 Q 16.87 -6.11 16.66 -5.87 Q 16.45 -5.63 16.45 -5.28 L 16.45 -5.28 L 16.45 -2.62 Q 16.45 -2.24 16.69 -2.03 Q 16.92 -1.82 17.28 -1.82 L 17.28 -1.82 L 20.7 -1.82 L 20.7 0 L 17.26 0 Q 16.87 0 16.41 -0.14 Q 15.95 -0.28 15.56 -0.59 Q 15.17 -0.9 14.9 -1.4 Q 14.64 -1.9 14.64 -2.62 Z M 26.33 -2.67 L 26.33 -2.67 L 26.33 -7.92 L 28.23 -7.92 L 28.23 -2.67 Q 28.23 -2.3 28.43 -2.1 Q 28.63 -1.9 29.01 -1.9 L 29.01 -1.9 L 32.43 -1.9 L 32.43 0 L 29 0 Q 28.59 0 28.12 -0.14 Q 27.66 -0.28 27.26 -0.6 Q 26.85 -0.92 26.59 -1.42 Q 26.33 -1.93 26.33 -2.67 Z M 29 3.44 L 29 1.53 L 32.43 1.53 Q 32.81 1.53 33.01 1.33 Q 33.2 1.14 33.2 0.76 L 33.2 0.76 L 33.2 -7.92 L 35.1 -7.92 L 35.1 0.76 Q 35.1 1.25 34.98 1.64 Q 34.85 2.04 34.65 2.33 Q 34.44 2.63 34.17 2.84 Q 33.9 3.05 33.6 3.18 Q 33.31 3.31 33.01 3.37 Q 32.71 3.44 32.43 3.44 L 32.43 3.44 L 29 3.44 Z M 38.53 -2.67 L 38.53 -2.67 L 38.53 -5.25 Q 38.53 -5.98 38.79 -6.49 Q 39.06 -7 39.46 -7.32 Q 39.86 -7.64 40.33 -7.78 Q 40.8 -7.92 41.19 -7.92 L 41.19 -7.92 L 44.63 -7.92 Q 45.36 -7.92 45.87 -7.65 Q 46.38 -7.39 46.7 -6.99 Q 47.01 -6.59 47.16 -6.12 Q 47.3 -5.65 47.3 -5.25 L 47.3 -5.25 L 47.3 -2.67 Q 47.3 -2.18 47.18 -1.79 Q 47.05 -1.4 46.85 -1.1 Q 46.64 -0.81 46.37 -0.6 Q 46.1 -0.39 45.8 -0.26 Q 45.51 -0.12 45.2 -0.06 Q 44.9 0 44.63 0 L 44.63 0 L 41.19 0 Q 40.8 0 40.33 -0.14 Q 39.86 -0.28 39.46 -0.6 Q 39.06 -0.92 38.79 -1.42 Q 38.53 -1.93 38.53 -2.67 Z M 40.43 -5.25 L 40.43 -2.67 Q 40.43 -2.3 40.63 -2.1 Q 40.83 -1.9 41.21 -1.9 L 41.21 -1.9 L 44.63 -1.9 Q 45.01 -1.9 45.21 -2.1 Q 45.4 -2.3 45.4 -2.67 L 45.4 -2.67 L 45.4 -5.24 Q 45.4 -5.63 45.2 -5.82 Q 45 -6.01 44.63 -6.01 L 44.63 -6.01 L 41.21 -6.01 Q 40.83 -6.01 40.63 -5.82 Q 40.43 -5.63 40.43 -5.25 L 40.43 -5.25 Z M 52.59 0 L 50.69 0 L 50.69 -6.97 Q 50.69 -7.17 50.76 -7.34 Q 50.83 -7.51 50.97 -7.64 Q 51.1 -7.77 51.27 -7.84 Q 51.45 -7.92 51.65 -7.92 L 51.65 -7.92 L 55.94 -7.92 Q 56.3 -7.92 56.7 -7.84 Q 57.1 -7.76 57.49 -7.58 Q 57.88 -7.4 58.24 -7.12 Q 58.59 -6.85 58.87 -6.46 Q 59.14 -6.06 59.3 -5.55 Q 59.46 -5.04 59.46 -4.39 L 59.46 -4.39 L 59.46 0 L 57.56 0 L 57.56 -4.39 Q 57.56 -4.77 57.43 -5.06 Q 57.3 -5.36 57.08 -5.57 Q 56.86 -5.79 56.57 -5.9 Q 56.27 -6.01 55.93 -6.01 L 55.93 -6.01 L 52.59 -6.01 L 52.59 0 Z M 62.81 -2.67 L 62.81 -2.67 L 62.81 -5.25 Q 62.81 -5.98 63.08 -6.49 Q 63.35 -7 63.75 -7.32 Q 64.15 -7.64 64.62 -7.78 Q 65.09 -7.92 65.48 -7.92 L 65.48 -7.92 L 68.92 -7.92 L 68.92 -6.01 L 65.5 -6.01 Q 65.11 -6.01 64.92 -5.82 Q 64.72 -5.63 64.72 -5.25 L 64.72 -5.25 L 64.72 -2.69 Q 64.72 -2.3 64.91 -2.1 Q 65.11 -1.9 65.48 -1.9 L 65.48 -1.9 L 68.92 -1.9 Q 69.3 -1.9 69.49 -2.1 Q 69.68 -2.3 69.68 -2.67 L 69.68 -2.67 L 69.68 -11.26 L 71.59 -11.26 L 71.59 -2.67 Q 71.59 -2.18 71.46 -1.79 Q 71.34 -1.4 71.14 -1.1 Q 70.93 -0.81 70.66 -0.6 Q 70.39 -0.39 70.09 -0.26 Q 69.79 -0.12 69.49 -0.06 Q 69.19 0 68.92 0 L 68.92 0 L 65.48 0 Q 64.99 0 64.6 -0.12 Q 64.21 -0.25 63.92 -0.46 Q 63.62 -0.67 63.41 -0.94 Q 63.2 -1.21 63.07 -1.51 Q 62.94 -1.8 62.88 -2.11 Q 62.81 -2.41 62.81 -2.67 Z M 82.02 -0.96 L 82.02 -0.96 L 82.02 -9.54 Q 82.02 -9.74 82.09 -9.92 Q 82.17 -10.09 82.3 -10.22 Q 82.42 -10.36 82.6 -10.43 Q 82.78 -10.5 82.98 -10.5 L 82.98 -10.5 L 88.12 -10.5 Q 89.07 -10.5 89.87 -10.17 Q 90.68 -9.84 91.26 -9.26 Q 91.85 -8.68 92.18 -7.87 Q 92.52 -7.06 92.52 -6.11 L 92.52 -6.11 L 92.52 -4.39 Q 92.52 -3.44 92.18 -2.63 Q 91.85 -1.82 91.26 -1.24 Q 90.68 -0.66 89.87 -0.33 Q 89.07 0 88.12 0 L 88.12 0 L 82.98 0 Q 82.78 0 82.6 -0.07 Q 82.42 -0.15 82.3 -0.27 Q 82.17 -0.4 82.09 -0.58 Q 82.02 -0.75 82.02 -0.96 Z M 83.93 -8.6 L 83.93 -1.9 L 88.12 -1.9 Q 88.68 -1.9 89.14 -2.08 Q 89.59 -2.26 89.92 -2.59 Q 90.25 -2.92 90.43 -3.37 Q 90.61 -3.83 90.61 -4.39 L 90.61 -4.39 L 90.61 -6.11 Q 90.61 -6.67 90.43 -7.13 Q 90.25 -7.59 89.92 -7.91 Q 89.59 -8.24 89.14 -8.42 Q 88.68 -8.6 88.12 -8.6 L 88.12 -8.6 L 83.93 -8.6 Z M 95.78 -2.62 L 95.78 -2.62 L 95.78 -5.3 Q 95.78 -5.69 95.92 -6.15 Q 96.06 -6.61 96.37 -7 Q 96.68 -7.39 97.18 -7.65 Q 97.69 -7.92 98.4 -7.92 L 98.4 -7.92 L 101.84 -7.92 Q 102.23 -7.92 102.69 -7.78 Q 103.15 -7.64 103.54 -7.33 Q 103.93 -7.02 104.2 -6.51 Q 104.46 -6.01 104.46 -5.3 L 104.46 -5.3 Q 104.46 -4.9 104.32 -4.44 Q 104.18 -3.98 103.87 -3.59 Q 103.56 -3.2 103.06 -2.94 Q 102.56 -2.67 101.84 -2.67 L 101.84 -2.67 L 98.4 -2.67 L 98.4 -4.48 L 101.84 -4.48 Q 102.23 -4.48 102.44 -4.72 Q 102.65 -4.96 102.65 -5.31 L 102.65 -5.31 Q 102.65 -5.68 102.41 -5.9 Q 102.18 -6.11 101.84 -6.11 L 101.84 -6.11 L 98.4 -6.11 Q 98.01 -6.11 97.8 -5.87 Q 97.59 -5.63 97.59 -5.28 L 97.59 -5.28 L 97.59 -2.62 Q 97.59 -2.24 97.83 -2.03 Q 98.07 -1.82 98.42 -1.82 L 98.42 -1.82 L 101.84 -1.82 L 101.84 0 L 98.4 0 Q 98.01 0 97.55 -0.14 Q 97.09 -0.28 96.7 -0.59 Q 96.31 -0.9 96.04 -1.4 Q 95.78 -1.9 95.78 -2.62 Z M 109.42 0 L 107.51 0 L 107.51 -6.97 Q 107.51 -7.17 107.59 -7.34 Q 107.66 -7.51 107.79 -7.64 Q 107.92 -7.77 108.1 -7.84 Q 108.27 -7.92 108.47 -7.92 L 108.47 -7.92 L 111.91 -7.92 Q 112.3 -7.92 112.76 -7.78 Q 113.21 -7.64 113.62 -7.33 L 113.62 -7.33 L 113.62 -7.92 L 116.2 -7.92 Q 116.47 -7.92 116.77 -7.86 Q 117.07 -7.79 117.37 -7.66 Q 117.66 -7.53 117.93 -7.32 Q 118.21 -7.11 118.41 -6.82 Q 118.62 -6.52 118.74 -6.13 Q 118.86 -5.74 118.86 -5.25 L 118.86 -5.25 L 118.86 0 L 116.96 0 L 116.96 -5.25 Q 116.96 -5.63 116.77 -5.82 Q 116.59 -6.01 116.2 -6.01 L 116.2 -6.01 L 114.48 -6.01 Q 114.58 -5.66 114.58 -5.25 L 114.58 -5.25 L 114.58 0 L 112.68 0 L 112.68 -5.25 Q 112.68 -5.63 112.48 -5.82 Q 112.28 -6.01 111.89 -6.01 L 111.89 -6.01 L 109.42 -6.01 L 109.42 0 Z M 122.22 -2.67 L 122.22 -2.67 L 122.22 -5.25 Q 122.22 -5.98 122.49 -6.49 Q 122.76 -7 123.16 -7.32 Q 123.56 -7.64 124.03 -7.78 Q 124.49 -7.92 124.89 -7.92 L 124.89 -7.92 L 128.32 -7.92 Q 129.06 -7.92 129.57 -7.65 Q 130.08 -7.39 130.4 -6.99 Q 130.71 -6.59 130.86 -6.12 Q 131 -5.65 131 -5.25 L 131 -5.25 L 131 -2.67 Q 131 -2.18 130.87 -1.79 Q 130.75 -1.4 130.54 -1.1 Q 130.34 -0.81 130.07 -0.6 Q 129.8 -0.39 129.5 -0.26 Q 129.2 -0.12 128.9 -0.06 Q 128.6 0 128.32 0 L 128.32 0 L 124.89 0 Q 124.49 0 124.03 -0.14 Q 123.56 -0.28 123.16 -0.6 Q 122.76 -0.92 122.49 -1.42 Q 122.22 -1.93 122.22 -2.67 Z M 124.13 -5.25 L 124.13 -2.67 Q 124.13 -2.3 124.33 -2.1 Q 124.52 -1.9 124.9 -1.9 L 124.9 -1.9 L 128.32 -1.9 Q 128.71 -1.9 128.9 -2.1 Q 129.09 -2.3 129.09 -2.67 L 129.09 -2.67 L 129.09 -5.24 Q 129.09 -5.63 128.9 -5.82 Q 128.7 -6.01 128.32 -6.01 L 128.32 -6.01 L 124.9 -6.01 Q 124.52 -6.01 124.33 -5.82 Q 124.13 -5.63 124.13 -5.25 L 124.13 -5.25 Z M 134.34 -2.67 L 134.34 -2.67 L 134.34 -11.26 L 136.25 -11.26 L 136.25 -2.67 Q 136.25 -2.32 136.47 -2.11 Q 136.69 -1.9 137.02 -1.9 L 137.02 -1.9 L 137.87 -1.9 L 137.87 0 L 137.02 0 Q 136.61 0 136.14 -0.14 Q 135.68 -0.28 135.27 -0.6 Q 134.87 -0.92 134.61 -1.42 Q 134.34 -1.93 134.34 -2.67 Z M 142.79 0 L 140.89 0 L 140.89 -7.92 L 142.79 -7.92 L 142.79 0 Z M 142.79 -9.54 L 140.89 -9.54 L 140.89 -11.26 L 142.79 -11.26 L 142.79 -9.54 Z M 148.33 -6.01 L 145.86 -6.01 L 145.86 -7.92 L 148.33 -7.92 L 148.33 -10.5 L 150.26 -10.5 L 150.26 -7.92 L 153.59 -7.92 L 153.59 -6.01 L 150.26 -6.01 L 150.26 0 L 148.33 0 L 148.33 -6.01 Z M 158.54 0 L 156.64 0 L 156.64 -7.92 L 158.54 -7.92 L 158.54 0 Z M 158.54 -9.54 L 156.64 -9.54 L 156.64 -11.26 L 158.54 -11.26 L 158.54 -9.54 Z M 161.97 -2.67 L 161.97 -2.67 L 161.97 -5.25 Q 161.97 -5.98 162.24 -6.49 Q 162.51 -7 162.91 -7.32 Q 163.31 -7.64 163.78 -7.78 Q 164.25 -7.92 164.64 -7.92 L 164.64 -7.92 L 168.08 -7.92 Q 168.81 -7.92 169.32 -7.65 Q 169.83 -7.39 170.15 -6.99 Q 170.46 -6.59 170.61 -6.12 Q 170.75 -5.65 170.75 -5.25 L 170.75 -5.25 L 170.75 -2.67 Q 170.75 -2.18 170.62 -1.79 Q 170.5 -1.4 170.3 -1.1 Q 170.09 -0.81 169.82 -0.6 Q 169.55 -0.39 169.25 -0.26 Q 168.95 -0.12 168.65 -0.06 Q 168.35 0 168.08 0 L 168.08 0 L 164.64 0 Q 164.25 0 163.78 -0.14 Q 163.31 -0.28 162.91 -0.6 Q 162.51 -0.92 162.24 -1.42 Q 161.97 -1.93 161.97 -2.67 Z M 163.88 -5.25 L 163.88 -2.67 Q 163.88 -2.3 164.08 -2.1 Q 164.27 -1.9 164.66 -1.9 L 164.66 -1.9 L 168.08 -1.9 Q 168.46 -1.9 168.65 -2.1 Q 168.84 -2.3 168.84 -2.67 L 168.84 -2.67 L 168.84 -5.24 Q 168.84 -5.63 168.65 -5.82 Q 168.45 -6.01 168.08 -6.01 L 168.08 -6.01 L 164.66 -6.01 Q 164.27 -6.01 164.08 -5.82 Q 163.88 -5.63 163.88 -5.25 L 163.88 -5.25 Z M 176.04 0 L 174.14 0 L 174.14 -6.97 Q 174.14 -7.17 174.21 -7.34 Q 174.28 -7.51 174.42 -7.64 Q 174.55 -7.77 174.72 -7.84 Q 174.9 -7.92 175.1 -7.92 L 175.1 -7.92 L 179.39 -7.92 Q 179.75 -7.92 180.15 -7.84 Q 180.55 -7.76 180.94 -7.58 Q 181.33 -7.4 181.69 -7.12 Q 182.04 -6.85 182.32 -6.46 Q 182.59 -6.06 182.75 -5.55 Q 182.91 -5.04 182.91 -4.39 L 182.91 -4.39 L 182.91 0 L 181.01 0 L 181.01 -4.39 Q 181.01 -4.77 180.88 -5.06 Q 180.75 -5.36 180.53 -5.57 Q 180.31 -5.79 180.02 -5.9 Q 179.72 -6.01 179.37 -6.01 L 179.37 -6.01 L 176.04 -6.01 L 176.04 0 Z M 187.14 1.35 L 185.8 1.35 L 186.48 -2.34 L 188.27 -2.34 L 187.14 1.35 Z M 197.99 -2.67 L 197.99 -2.67 L 197.99 -5.25 Q 197.99 -5.52 198.05 -5.82 Q 198.11 -6.12 198.24 -6.42 Q 198.37 -6.72 198.58 -6.99 Q 198.79 -7.26 199.09 -7.46 Q 199.38 -7.67 199.77 -7.79 Q 200.16 -7.92 200.65 -7.92 L 200.65 -7.92 L 205.82 -7.92 L 205.82 -6.01 L 200.65 -6.01 Q 200.28 -6.01 200.08 -5.82 Q 199.89 -5.63 199.89 -5.24 L 199.89 -5.24 L 199.89 -2.67 Q 199.89 -2.3 200.09 -2.1 Q 200.29 -1.9 200.67 -1.9 L 200.67 -1.9 L 205.82 -1.9 L 205.82 0 L 200.65 0 Q 200.26 0 199.79 -0.14 Q 199.32 -0.28 198.92 -0.6 Q 198.52 -0.92 198.25 -1.42 Q 197.99 -1.93 197.99 -2.67 Z M 211.02 0 L 209.12 0 L 209.12 -5.25 Q 209.12 -5.74 209.24 -6.13 Q 209.36 -6.52 209.57 -6.82 Q 209.78 -7.11 210.05 -7.32 Q 210.32 -7.53 210.62 -7.66 Q 210.92 -7.79 211.22 -7.86 Q 211.53 -7.92 211.79 -7.92 L 211.79 -7.92 L 216.09 -7.92 L 216.09 -6.01 L 211.8 -6.01 Q 211.42 -6.01 211.22 -5.82 Q 211.02 -5.63 211.02 -5.25 L 211.02 -5.25 L 211.02 0 Z M 218.92 -2.62 L 218.92 -2.62 L 218.92 -5.3 Q 218.92 -5.69 219.06 -6.15 Q 219.2 -6.61 219.51 -7 Q 219.82 -7.39 220.32 -7.65 Q 220.82 -7.92 221.54 -7.92 L 221.54 -7.92 L 224.98 -7.92 Q 225.37 -7.92 225.83 -7.78 Q 226.29 -7.64 226.68 -7.33 Q 227.07 -7.02 227.34 -6.51 Q 227.6 -6.01 227.6 -5.3 L 227.6 -5.3 Q 227.6 -4.9 227.46 -4.44 Q 227.32 -3.98 227.01 -3.59 Q 226.7 -3.2 226.2 -2.94 Q 225.7 -2.67 224.98 -2.67 L 224.98 -2.67 L 221.54 -2.67 L 221.54 -4.48 L 224.98 -4.48 Q 225.37 -4.48 225.58 -4.72 Q 225.79 -4.96 225.79 -5.31 L 225.79 -5.31 Q 225.79 -5.68 225.55 -5.9 Q 225.31 -6.11 224.98 -6.11 L 224.98 -6.11 L 221.54 -6.11 Q 221.15 -6.11 220.94 -5.87 Q 220.73 -5.63 220.73 -5.28 L 220.73 -5.28 L 220.73 -2.62 Q 220.73 -2.24 220.97 -2.03 Q 221.21 -1.82 221.56 -1.82 L 221.56 -1.82 L 224.98 -1.82 L 224.98 0 L 221.54 0 Q 221.15 0 220.69 -0.14 Q 220.23 -0.28 219.84 -0.59 Q 219.45 -0.9 219.18 -1.4 Q 218.92 -1.9 218.92 -2.62 Z M 230.09 -2.62 L 230.09 -2.62 Q 230.09 -3.02 230.23 -3.48 Q 230.37 -3.94 230.68 -4.33 Q 230.99 -4.72 231.49 -4.99 Q 231.99 -5.25 232.71 -5.25 L 232.71 -5.25 L 236.14 -5.25 L 236.14 -3.44 L 232.71 -3.44 Q 232.32 -3.44 232.11 -3.2 Q 231.9 -2.96 231.9 -2.61 L 231.9 -2.61 Q 231.9 -2.23 232.14 -2.03 Q 232.39 -1.82 232.72 -1.82 L 232.72 -1.82 L 236.14 -1.82 Q 236.53 -1.82 236.75 -2.05 Q 236.96 -2.29 236.96 -2.64 L 236.96 -2.64 L 236.96 -5.3 Q 236.96 -5.67 236.73 -5.89 Q 236.5 -6.11 236.14 -6.11 L 236.14 -6.11 L 231.96 -6.11 L 231.96 -7.92 L 236.14 -7.92 Q 236.54 -7.92 237 -7.78 Q 237.46 -7.64 237.85 -7.33 Q 238.24 -7.02 238.5 -6.51 Q 238.77 -6.01 238.77 -5.3 L 238.77 -5.3 L 238.77 -2.62 Q 238.77 -2.23 238.63 -1.77 Q 238.49 -1.31 238.18 -0.92 Q 237.87 -0.53 237.36 -0.26 Q 236.86 0 236.14 0 L 236.14 0 L 232.71 0 Q 232.31 0 231.86 -0.14 Q 231.4 -0.28 231.01 -0.59 Q 230.61 -0.9 230.35 -1.4 Q 230.09 -1.9 230.09 -2.62 Z M 244.08 -6.01 L 241.61 -6.01 L 241.61 -7.92 L 244.08 -7.92 L 244.08 -10.5 L 246.01 -10.5 L 246.01 -7.92 L 249.33 -7.92 L 249.33 -6.01 L 246.01 -6.01 L 246.01 0 L 244.08 0 L 244.08 -6.01 Z M 254.29 0 L 252.38 0 L 252.38 -7.92 L 254.29 -7.92 L 254.29 0 Z M 254.29 -9.54 L 252.38 -9.54 L 252.38 -11.26 L 254.29 -11.26 L 254.29 -9.54 Z M 259.79 0 L 257.88 0 L 257.88 -6.97 Q 257.88 -7.17 257.96 -7.34 Q 258.03 -7.51 258.16 -7.64 Q 258.29 -7.77 258.47 -7.84 Q 258.64 -7.92 258.84 -7.92 L 258.84 -7.92 L 263.13 -7.92 Q 263.49 -7.92 263.89 -7.84 Q 264.29 -7.76 264.68 -7.58 Q 265.08 -7.4 265.43 -7.12 Q 265.79 -6.85 266.06 -6.46 Q 266.33 -6.06 266.5 -5.55 Q 266.66 -5.04 266.66 -4.39 L 266.66 -4.39 L 266.66 0 L 264.75 0 L 264.75 -4.39 Q 264.75 -4.77 264.62 -5.06 Q 264.5 -5.36 264.28 -5.57 Q 264.06 -5.79 263.76 -5.9 Q 263.46 -6.01 263.12 -6.01 L 263.12 -6.01 L 259.79 -6.01 L 259.79 0 Z M 269.94 -2.67 L 269.94 -2.67 L 269.94 -5.25 Q 269.94 -5.52 270 -5.82 Q 270.06 -6.12 270.19 -6.42 Q 270.32 -6.72 270.53 -6.99 Q 270.74 -7.26 271.04 -7.46 Q 271.33 -7.67 271.72 -7.79 Q 272.11 -7.92 272.6 -7.92 L 272.6 -7.92 L 276.04 -7.92 Q 276.31 -7.92 276.61 -7.86 Q 276.92 -7.79 277.21 -7.66 Q 277.51 -7.53 277.78 -7.32 Q 278.05 -7.11 278.26 -6.82 Q 278.46 -6.52 278.59 -6.13 Q 278.71 -5.74 278.71 -5.25 L 278.71 -5.25 L 278.71 0.76 Q 278.71 1.25 278.59 1.64 Q 278.46 2.04 278.26 2.33 Q 278.05 2.63 277.78 2.84 Q 277.51 3.05 277.21 3.18 Q 276.92 3.31 276.61 3.37 Q 276.31 3.44 276.04 3.44 L 276.04 3.44 L 272.6 3.44 L 272.6 1.53 L 276.04 1.53 Q 276.43 1.53 276.62 1.33 Q 276.81 1.14 276.81 0.76 L 276.81 0.76 L 276.81 -5.25 Q 276.81 -5.63 276.62 -5.82 Q 276.43 -6.01 276.04 -6.01 L 276.04 -6.01 L 272.6 -6.01 Q 272.25 -6.01 272.05 -5.8 Q 271.84 -5.58 271.84 -5.25 L 271.84 -5.25 L 271.84 -2.67 Q 271.84 -2.3 272.04 -2.1 Q 272.24 -1.9 272.62 -1.9 L 272.62 -1.9 L 276.04 -1.9 L 276.04 0 L 272.6 0 Q 272.33 0 272.03 -0.06 Q 271.73 -0.12 271.43 -0.26 Q 271.14 -0.39 270.87 -0.6 Q 270.6 -0.81 270.39 -1.1 Q 270.19 -1.4 270.06 -1.79 Q 269.94 -2.18 269.94 -2.67 Z M 288.71 -2.67 L 288.71 -2.67 L 288.71 -5.25 Q 288.71 -5.98 288.98 -6.49 Q 289.25 -7 289.64 -7.32 Q 290.04 -7.64 290.51 -7.78 Q 290.98 -7.92 291.38 -7.92 L 291.38 -7.92 L 294.81 -7.92 Q 295.54 -7.92 296.06 -7.65 Q 296.57 -7.39 296.88 -6.99 Q 297.2 -6.59 297.34 -6.12 Q 297.48 -5.65 297.48 -5.25 L 297.48 -5.25 L 297.48 -2.67 Q 297.48 -2.18 297.36 -1.79 Q 297.24 -1.4 297.03 -1.1 Q 296.83 -0.81 296.55 -0.6 Q 296.28 -0.39 295.99 -0.26 Q 295.69 -0.12 295.39 -0.06 Q 295.08 0 294.81 0 L 294.81 0 L 291.38 0 Q 290.98 0 290.51 -0.14 Q 290.04 -0.28 289.64 -0.6 Q 289.25 -0.92 288.98 -1.42 Q 288.71 -1.93 288.71 -2.67 Z M 290.61 -5.25 L 290.61 -2.67 Q 290.61 -2.3 290.81 -2.1 Q 291.01 -1.9 291.39 -1.9 L 291.39 -1.9 L 294.81 -1.9 Q 295.2 -1.9 295.39 -2.1 Q 295.58 -2.3 295.58 -2.67 L 295.58 -2.67 L 295.58 -5.24 Q 295.58 -5.63 295.38 -5.82 Q 295.19 -6.01 294.81 -6.01 L 294.81 -6.01 L 291.39 -6.01 Q 291.01 -6.01 290.81 -5.82 Q 290.61 -5.63 290.61 -5.25 L 290.61 -5.25 Z M 302.73 2.48 L 300.83 2.48 L 300.83 -5.25 Q 300.83 -5.74 300.95 -6.13 Q 301.08 -6.52 301.29 -6.82 Q 301.5 -7.11 301.77 -7.32 Q 302.04 -7.53 302.33 -7.66 Q 302.63 -7.79 302.94 -7.86 Q 303.24 -7.92 303.5 -7.92 L 303.5 -7.92 L 306.94 -7.92 Q 307.43 -7.92 307.82 -7.79 Q 308.21 -7.67 308.5 -7.46 Q 308.8 -7.26 309.01 -6.99 Q 309.22 -6.72 309.35 -6.42 Q 309.48 -6.12 309.54 -5.82 Q 309.6 -5.52 309.6 -5.25 L 309.6 -5.25 L 309.6 -2.67 Q 309.6 -2.18 309.48 -1.79 Q 309.35 -1.4 309.15 -1.1 Q 308.94 -0.81 308.67 -0.6 Q 308.4 -0.39 308.11 -0.26 Q 307.81 -0.12 307.51 -0.06 Q 307.21 0 306.94 0 L 306.94 0 L 303.5 0 L 303.5 -1.9 L 306.94 -1.9 Q 307.32 -1.9 307.51 -2.1 Q 307.7 -2.3 307.7 -2.67 L 307.7 -2.67 L 307.7 -5.24 Q 307.7 -5.63 307.51 -5.82 Q 307.31 -6.01 306.94 -6.01 L 306.94 -6.01 L 303.52 -6.01 Q 303.13 -6.01 302.93 -5.82 Q 302.73 -5.63 302.73 -5.25 L 302.73 -5.25 L 302.73 2.48 Z M 314.86 2.48 L 312.96 2.48 L 312.96 -5.25 Q 312.96 -5.74 313.08 -6.13 Q 313.2 -6.52 313.41 -6.82 Q 313.62 -7.11 313.89 -7.32 Q 314.16 -7.53 314.46 -7.66 Q 314.76 -7.79 315.06 -7.86 Q 315.37 -7.92 315.63 -7.92 L 315.63 -7.92 L 319.06 -7.92 Q 319.56 -7.92 319.94 -7.79 Q 320.33 -7.67 320.63 -7.46 Q 320.92 -7.26 321.13 -6.99 Q 321.34 -6.72 321.47 -6.42 Q 321.61 -6.12 321.67 -5.82 Q 321.73 -5.52 321.73 -5.25 L 321.73 -5.25 L 321.73 -2.67 Q 321.73 -2.18 321.61 -1.79 Q 321.48 -1.4 321.28 -1.1 Q 321.07 -0.81 320.8 -0.6 Q 320.53 -0.39 320.23 -0.26 Q 319.94 -0.12 319.64 -0.06 Q 319.34 0 319.06 0 L 319.06 0 L 315.63 0 L 315.63 -1.9 L 319.06 -1.9 Q 319.45 -1.9 319.64 -2.1 Q 319.83 -2.3 319.83 -2.67 L 319.83 -2.67 L 319.83 -5.24 Q 319.83 -5.63 319.63 -5.82 Q 319.44 -6.01 319.06 -6.01 L 319.06 -6.01 L 315.64 -6.01 Q 315.26 -6.01 315.06 -5.82 Q 314.86 -5.63 314.86 -5.25 L 314.86 -5.25 L 314.86 2.48 Z M 324.97 -2.67 L 324.97 -2.67 L 324.97 -5.25 Q 324.97 -5.98 325.23 -6.49 Q 325.5 -7 325.9 -7.32 Q 326.3 -7.64 326.77 -7.78 Q 327.24 -7.92 327.63 -7.92 L 327.63 -7.92 L 331.07 -7.92 Q 331.8 -7.92 332.31 -7.65 Q 332.82 -7.39 333.14 -6.99 Q 333.45 -6.59 333.6 -6.12 Q 333.74 -5.65 333.74 -5.25 L 333.74 -5.25 L 333.74 -2.67 Q 333.74 -2.18 333.62 -1.79 Q 333.49 -1.4 333.29 -1.1 Q 333.08 -0.81 332.81 -0.6 Q 332.54 -0.39 332.24 -0.26 Q 331.95 -0.12 331.64 -0.06 Q 331.34 0 331.07 0 L 331.07 0 L 327.63 0 Q 327.24 0 326.77 -0.14 Q 326.3 -0.28 325.9 -0.6 Q 325.5 -0.92 325.23 -1.42 Q 324.97 -1.93 324.97 -2.67 Z M 326.87 -5.25 L 326.87 -2.67 Q 326.87 -2.3 327.07 -2.1 Q 327.27 -1.9 327.65 -1.9 L 327.65 -1.9 L 331.07 -1.9 Q 331.45 -1.9 331.64 -2.1 Q 331.84 -2.3 331.84 -2.67 L 331.84 -2.67 L 331.84 -5.24 Q 331.84 -5.63 331.64 -5.82 Q 331.44 -6.01 331.07 -6.01 L 331.07 -6.01 L 327.65 -6.01 Q 327.27 -6.01 327.07 -5.82 Q 326.87 -5.63 326.87 -5.25 L 326.87 -5.25 Z M 338.99 0 L 337.08 0 L 337.08 -5.25 Q 337.08 -5.74 337.21 -6.13 Q 337.33 -6.52 337.54 -6.82 Q 337.75 -7.11 338.02 -7.32 Q 338.29 -7.53 338.59 -7.66 Q 338.89 -7.79 339.19 -7.86 Q 339.49 -7.92 339.76 -7.92 L 339.76 -7.92 L 344.06 -7.92 L 344.06 -6.01 L 339.77 -6.01 Q 339.38 -6.01 339.19 -5.82 Q 338.99 -5.63 338.99 -5.25 L 338.99 -5.25 L 338.99 0 Z M 349.03 -6.01 L 346.55 -6.01 L 346.55 -7.92 L 349.03 -7.92 L 349.03 -10.5 L 350.95 -10.5 L 350.95 -7.92 L 354.28 -7.92 L 354.28 -6.01 L 350.95 -6.01 L 350.95 0 L 349.03 0 L 349.03 -6.01 Z M 357.18 -3.52 L 357.18 -3.52 L 357.18 -7.92 L 359.09 -7.92 L 359.09 -3.52 Q 359.09 -3.15 359.22 -2.85 Q 359.35 -2.56 359.56 -2.34 Q 359.78 -2.13 360.08 -2.02 Q 360.38 -1.9 360.72 -1.9 L 360.72 -1.9 L 364.05 -1.9 L 364.05 -7.92 L 365.96 -7.92 L 365.96 -0.96 Q 365.96 -0.75 365.89 -0.58 Q 365.81 -0.4 365.68 -0.27 Q 365.56 -0.15 365.38 -0.07 Q 365.21 0 365.01 0 L 365.01 0 L 360.71 0 Q 360.36 0 359.96 -0.08 Q 359.56 -0.16 359.17 -0.34 Q 358.78 -0.52 358.42 -0.79 Q 358.06 -1.07 357.78 -1.46 Q 357.51 -1.85 357.35 -2.37 Q 357.18 -2.88 357.18 -3.52 Z M 371.42 0 L 369.52 0 L 369.52 -6.97 Q 369.52 -7.17 369.59 -7.34 Q 369.66 -7.51 369.79 -7.64 Q 369.93 -7.77 370.1 -7.84 Q 370.28 -7.92 370.48 -7.92 L 370.48 -7.92 L 374.77 -7.92 Q 375.13 -7.92 375.53 -7.84 Q 375.92 -7.76 376.32 -7.58 Q 376.71 -7.4 377.06 -7.12 Q 377.42 -6.85 377.69 -6.46 Q 377.97 -6.06 378.13 -5.55 Q 378.29 -5.04 378.29 -4.39 L 378.29 -4.39 L 378.29 0 L 376.39 0 L 376.39 -4.39 Q 376.39 -4.77 376.26 -5.06 Q 376.13 -5.36 375.91 -5.57 Q 375.69 -5.79 375.39 -5.9 Q 375.1 -6.01 374.75 -6.01 L 374.75 -6.01 L 371.42 -6.01 L 371.42 0 Z M 383.66 0 L 381.76 0 L 381.76 -7.92 L 383.66 -7.92 L 383.66 0 Z M 383.66 -9.54 L 381.76 -9.54 L 381.76 -11.26 L 383.66 -11.26 L 383.66 -9.54 Z M 389.21 -6.01 L 386.73 -6.01 L 386.73 -7.92 L 389.21 -7.92 L 389.21 -10.5 L 391.13 -10.5 L 391.13 -7.92 L 394.46 -7.92 L 394.46 -6.01 L 391.13 -6.01 L 391.13 0 L 389.21 0 L 389.21 -6.01 Z M 399.41 0 L 397.51 0 L 397.51 -7.92 L 399.41 -7.92 L 399.41 0 Z M 399.41 -9.54 L 397.51 -9.54 L 397.51 -11.26 L 399.41 -11.26 L 399.41 -9.54 Z M 402.85 -2.62 L 402.85 -2.62 L 402.85 -5.3 Q 402.85 -5.69 402.99 -6.15 Q 403.12 -6.61 403.44 -7 Q 403.75 -7.39 404.25 -7.65 Q 404.75 -7.92 405.47 -7.92 L 405.47 -7.92 L 408.9 -7.92 Q 409.3 -7.92 409.76 -7.78 Q 410.21 -7.64 410.61 -7.33 Q 411 -7.02 411.26 -6.51 Q 411.53 -6.01 411.53 -5.3 L 411.53 -5.3 Q 411.53 -4.9 411.39 -4.44 Q 411.25 -3.98 410.94 -3.59 Q 410.62 -3.2 410.12 -2.94 Q 409.62 -2.67 408.9 -2.67 L 408.9 -2.67 L 405.47 -2.67 L 405.47 -4.48 L 408.9 -4.48 Q 409.29 -4.48 409.5 -4.72 Q 409.72 -4.96 409.72 -5.31 L 409.72 -5.31 Q 409.72 -5.68 409.48 -5.9 Q 409.24 -6.11 408.9 -6.11 L 408.9 -6.11 L 405.47 -6.11 Q 405.08 -6.11 404.87 -5.87 Q 404.65 -5.63 404.65 -5.28 L 404.65 -5.28 L 404.65 -2.62 Q 404.65 -2.24 404.89 -2.03 Q 405.13 -1.82 405.48 -1.82 L 405.48 -1.82 L 408.9 -1.82 L 408.9 0 L 405.47 0 Q 405.07 0 404.61 -0.14 Q 404.16 -0.28 403.77 -0.59 Q 403.37 -0.9 403.11 -1.4 Q 402.85 -1.9 402.85 -2.62 Z M 414.31 -5.63 L 414.31 -5.63 Q 414.31 -6.26 414.53 -6.7 Q 414.76 -7.13 415.1 -7.4 Q 415.45 -7.68 415.85 -7.8 Q 416.25 -7.92 416.61 -7.92 L 416.61 -7.92 L 421.29 -7.92 L 421.29 -6.01 L 416.62 -6.01 Q 416.47 -6.01 416.39 -5.98 Q 416.31 -5.95 416.27 -5.89 Q 416.22 -5.84 416.22 -5.78 Q 416.21 -5.71 416.21 -5.65 L 416.21 -5.65 Q 416.22 -5.54 416.25 -5.47 Q 416.29 -5.41 416.35 -5.38 Q 416.4 -5.35 416.47 -5.34 Q 416.54 -5.34 416.61 -5.34 L 416.61 -5.34 L 419.56 -5.34 Q 420.29 -5.34 420.8 -5.08 Q 421.32 -4.81 421.63 -4.41 Q 421.95 -4.01 422.09 -3.54 Q 422.23 -3.08 422.23 -2.67 L 422.23 -2.67 Q 422.23 -2.18 422.11 -1.79 Q 421.98 -1.4 421.78 -1.1 Q 421.57 -0.81 421.3 -0.6 Q 421.03 -0.39 420.73 -0.26 Q 420.44 -0.12 420.13 -0.06 Q 419.83 0 419.56 0 L 419.56 0 L 414.4 0 L 414.4 -1.9 L 419.54 -1.9 Q 419.93 -1.9 420.13 -2.1 Q 420.33 -2.3 420.33 -2.67 L 420.33 -2.67 Q 420.29 -3.44 419.56 -3.44 L 419.56 -3.44 L 416.61 -3.44 Q 415.98 -3.44 415.54 -3.65 Q 415.1 -3.87 414.82 -4.2 Q 414.55 -4.53 414.43 -4.91 Q 414.31 -5.3 414.31 -5.63 Z" stroke-linecap="round" />
</g>
</g>
</g>
</svg>